<svg xmlns="http://www.w3.org/2000/svg" viewBox="0 0 1000 500" width="1000" height="500">
  <defs>
    <style>
      .bg { fill: #f8fafc; }
      .grid-dot { fill: #e2e8f0; }
      .header-bg { fill: #0b1120; }
      .header-title { fill: #ffffff; }
      .header-sub { fill: #94a3b8; }
      .card-bg { fill: #ffffff; }
      .text-muted { fill: #475569; }
      .arrow-line { stroke: #64748b; stroke-width: 2; fill: none; stroke-linecap: round; stroke-linejoin: round; }
      .arrow-dash { stroke: #94a3b8; stroke-width: 2; stroke-dasharray: 5,4; fill: none; stroke-linecap: round; }
      .arrow-head { fill: #64748b; }
      .pill-bg { fill: #ffffff; }

      @media (prefers-color-scheme: dark) {
        .bg { fill: #070b14; }
        .grid-dot { fill: #1e293b; }
        .header-bg { fill: #030712; }
        .card-bg { fill: #0f172a; }
        .text-muted { fill: #94a3b8; }
        .arrow-line { stroke: #94a3b8; }
        .arrow-dash { stroke: #64748b; }
        .arrow-head { fill: #94a3b8; }
        .pill-bg { fill: #0f172a; }
      }
    </style>
    <pattern id="grid" width="24" height="24" patternUnits="userSpaceOnUse">
      <circle cx="2" cy="2" r="1.15" class="grid-dot" />
    </pattern>
    <linearGradient id="headerGrad" x1="0%" y1="0%" x2="100%" y2="100%">
      <stop offset="0%" stop-color="#38bdf8" />
      <stop offset="100%" stop-color="#3b82f6" />
    </linearGradient>
    <marker id="arrow" viewBox="0 0 10 10" refX="7" refY="5" markerWidth="6.5" markerHeight="6.5" orient="auto-start-reverse">
      <path d="M 0 1.5 L 8 5 L 0 8.5 z" class="arrow-head" />
    </marker>
    <!-- Hollow White Triangle Marker for UML Realization / Implementation -->
    <marker id="uml-realize" viewBox="0 0 12 12" refX="11" refY="6" markerWidth="9" markerHeight="9" orient="auto-start-reverse">
      <polygon points="1,1 11,6 1,11" fill="#ffffff" stroke="#38bdf8" stroke-width="1.8" />
    </marker>
    <!-- Hollow White Triangle Marker for UML Generalization / Inheritance -->
    <marker id="uml-inherit" viewBox="0 0 12 12" refX="11" refY="6" markerWidth="9" markerHeight="9" orient="auto-start-reverse">
      <polygon points="1,1 11,6 1,11" fill="#ffffff" stroke="#38bdf8" stroke-width="1.8" />
    </marker>
  </defs>

  <!-- Clean Canvas Background with Dot Matrix Grid -->
  <rect width="1000" height="500" class="bg" />
  <rect width="1000" height="500" fill="url(#grid)" />

  <!-- Architectural Banner Header -->
  <rect x="0" y="0" width="1000" height="64" class="header-bg" />
  <rect x="0" y="62" width="1000" height="2.5" fill="url(#headerGrad)" />
  <text x="28" y="28" font-family="-apple-system, BlinkMacSystemFont, sans-serif" font-size="14.5" font-weight="900" class="header-title" letter-spacing="0.04em">FACADE PATTERN — UML ARCHITECTURE</text>
  <text x="28" y="48" font-family="-apple-system, BlinkMacSystemFont, sans-serif" font-size="11" font-weight="600" class="header-sub">Provides a unified, simplified interface to a complex subsystem, making the subsystem easier to use.</text>
  <rect x="810" y="18" width="162" height="26" rx="13" fill="#38bdf8" opacity="0.18" stroke="#38bdf8" stroke-width="1" />
  <text x="891" y="35" text-anchor="middle" font-family="-apple-system, BlinkMacSystemFont, sans-serif" font-size="10.5" font-weight="800" fill="#38bdf8">UML Class Architecture</text>

  <!-- Connections and Numbered Method Invocations -->
  
      <g id="conn-0">
        <path d="M 250 200 L 340 190" class="arrow-line" stroke="#38bdf8" marker-end="url(#arrow)" />
        
          
            <!-- Standard Label Pill -->
            <rect x="265" y="170" width="60" height="20" rx="6" class="pill-bg" stroke="#38bdf8" stroke-width="1.2" />
            <text x="295" y="183.5" text-anchor="middle" font-family="-apple-system, BlinkMacSystemFont, sans-serif" font-size="9.5" font-weight="750" fill="#38bdf8">calls simple API</text>
          
        
      </g>
    
      <g id="conn-1">
        <path d="M 600 150 L 680 115" class="arrow-line" stroke="#38bdf8" marker-end="url(#arrow)" />
        
          
            <!-- Standard Label Pill -->
            <rect x="610" y="110" width="60" height="20" rx="6" class="pill-bg" stroke="#38bdf8" stroke-width="1.2" />
            <text x="640" y="123.5" text-anchor="middle" font-family="-apple-system, BlinkMacSystemFont, sans-serif" font-size="9.5" font-weight="750" fill="#38bdf8">coordinates</text>
          
        
      </g>
    
      <g id="conn-2">
        <path d="M 600 190 L 680 225" class="arrow-line" stroke="#38bdf8" marker-end="url(#arrow)" />
        
          
            <!-- Standard Label Pill -->
            <rect x="610" y="185" width="60" height="20" rx="6" class="pill-bg" stroke="#38bdf8" stroke-width="1.2" />
            <text x="640" y="198.5" text-anchor="middle" font-family="-apple-system, BlinkMacSystemFont, sans-serif" font-size="9.5" font-weight="750" fill="#38bdf8">coordinates</text>
          
        
      </g>
    
      <g id="conn-3">
        <path d="M 600 230 L 680 330" class="arrow-line" stroke="#38bdf8" marker-end="url(#arrow)" />
        
          
            <!-- Standard Label Pill -->
            <rect x="610" y="265" width="60" height="20" rx="6" class="pill-bg" stroke="#38bdf8" stroke-width="1.2" />
            <text x="640" y="278.5" text-anchor="middle" font-family="-apple-system, BlinkMacSystemFont, sans-serif" font-size="9.5" font-weight="750" fill="#38bdf8">coordinates</text>
          
        
      </g>
    

  <!-- UML Class Nodes -->
  
      <g id="node-0" class="node-card">
        <!-- Main UML Class Card Container with Rounded Corners -->
        <rect x="50" y="150" width="200" height="120" rx="10" class="card-bg" stroke="#38bdf8" stroke-width="1.8" />
        
        <!-- Header Compartment -->
        <path d="M 51 151 L 249 151 A 9 9 0 0 1 250 160 L 250 190 L 50 190 L 50 160 A 9 9 0 0 1 51 151 Z" fill="#38bdf8" opacity="0.12" />
        <line x1="50" y1="190" x2="250" y2="190" stroke="#38bdf8" stroke-width="1.2" opacity="0.3" />
        
        
          <!-- UML Stereotype and Class Title with Component Icon -->
          
        <g transform="translate(62, 161)">
          <rect x="1" y="0" width="18" height="12" rx="1.8" fill="none" stroke="#38bdf8" stroke-width="1.6"/>
          <line x1="0" y1="15" x2="20" y2="15" stroke="#38bdf8" stroke-width="1.8" stroke-linecap="round"/>
          <circle cx="3.5" cy="3" r="0.7" fill="#38bdf8"/>
          <circle cx="6" cy="3" r="0.7" fill="#38bdf8"/>
          <circle cx="8.5" cy="3" r="0.7" fill="#38bdf8"/>
        </g>
          
          
            <text x="86" y="166" font-family="ui-monospace, monospace" font-size="9" font-weight="700" fill="#38bdf8" letter-spacing="0.04em">&lt;&lt;client&gt;&gt;</text>
            <text x="86" y="181" font-family="-apple-system, BlinkMacSystemFont, sans-serif" font-size="12" font-weight="800" fill="#38bdf8">Web Checkout Controller</text>
          
        

        <!-- Component Tag Badge on Top Right of Card -->
        
          <rect x="168" y="158" width="74" height="18" rx="9" fill="#38bdf8" opacity="0.18" />
          <text x="205" y="170.5" text-anchor="middle" font-family="-apple-system, BlinkMacSystemFont, sans-serif" font-size="9" font-weight="800" fill="#38bdf8">Client</text>
        

        <!-- UML Methods & Attributes Section -->
        
          <text x="150" y="210" text-anchor="middle" font-family="ui-monospace, SFMono-Regular, Menlo, Monaco, Consolas, monospace" font-size="10.5" class="text-muted">Client layer</text>
        
          <text x="150" y="229" text-anchor="middle" font-family="ui-monospace, SFMono-Regular, Menlo, Monaco, Consolas, monospace" font-size="10.5" class="text-muted">Calls facade.checkout()</text>
        
      </g>
    
      <g id="node-1" class="node-card">
        <!-- Main UML Class Card Container with Rounded Corners -->
        <rect x="340" y="110" width="260" height="170" rx="10" class="card-bg" stroke="#10b981" stroke-width="1.8" />
        
        <!-- Header Compartment -->
        <path d="M 341 111 L 599 111 A 9 9 0 0 1 600 120 L 600 150 L 340 150 L 340 120 A 9 9 0 0 1 341 111 Z" fill="#10b981" opacity="0.12" />
        <line x1="340" y1="150" x2="600" y2="150" stroke="#10b981" stroke-width="1.2" opacity="0.3" />
        
        
          <!-- UML Stereotype and Class Title with Component Icon -->
          
        <g transform="translate(352, 121)">
          <rect x="3" y="5" width="12" height="10" rx="2" fill="none" stroke="#10b981" stroke-width="1.5"/>
          <line x1="6" y1="1" x2="6" y2="5" stroke="#10b981" stroke-width="1.5" stroke-linecap="round"/>
          <line x1="12" y1="1" x2="12" y2="5" stroke="#10b981" stroke-width="1.5" stroke-linecap="round"/>
        </g>
          
          
            <text x="376" y="126" font-family="ui-monospace, monospace" font-size="9" font-weight="700" fill="#10b981" letter-spacing="0.04em">&lt;&lt;facade&gt;&gt;</text>
            <text x="376" y="141" font-family="-apple-system, BlinkMacSystemFont, sans-serif" font-size="12" font-weight="800" fill="#10b981">CheckoutFacade</text>
          
        

        <!-- Component Tag Badge on Top Right of Card -->
        
          <rect x="518" y="118" width="74" height="18" rx="9" fill="#10b981" opacity="0.18" />
          <text x="555" y="130.5" text-anchor="middle" font-family="-apple-system, BlinkMacSystemFont, sans-serif" font-size="9" font-weight="800" fill="#10b981">Facade</text>
        

        <!-- UML Methods & Attributes Section -->
        
          <text x="470" y="170" text-anchor="middle" font-family="ui-monospace, SFMono-Regular, Menlo, Monaco, Consolas, monospace" font-size="10.5" class="text-muted">- inventory: StockSvc</text>
        
          <text x="470" y="189" text-anchor="middle" font-family="ui-monospace, SFMono-Regular, Menlo, Monaco, Consolas, monospace" font-size="10.5" class="text-muted">- payment: CardSvc</text>
        
          <text x="470" y="208" text-anchor="middle" font-family="ui-monospace, SFMono-Regular, Menlo, Monaco, Consolas, monospace" font-size="10.5" class="text-muted">- logistics: ShippingSvc</text>
        
          <text x="470" y="227" text-anchor="middle" font-family="ui-monospace, SFMono-Regular, Menlo, Monaco, Consolas, monospace" font-size="10.5" class="text-muted">+ processOrder(): OrderId</text>
        
      </g>
    
      <g id="node-2" class="node-card">
        <!-- Main UML Class Card Container with Rounded Corners -->
        <rect x="680" y="70" width="230" height="90" rx="10" class="card-bg" stroke="#f59e0b" stroke-width="1.8" />
        
        <!-- Header Compartment -->
        <path d="M 681 71 L 909 71 A 9 9 0 0 1 910 80 L 910 110 L 680 110 L 680 80 A 9 9 0 0 1 681 71 Z" fill="#f59e0b" opacity="0.12" />
        <line x1="680" y1="110" x2="910" y2="110" stroke="#f59e0b" stroke-width="1.2" opacity="0.3" />
        
        
          <!-- UML Stereotype and Class Title with Component Icon -->
          
        <g transform="translate(692, 81)">
          <rect x="0" y="0" width="18" height="18" rx="2" fill="none" stroke="#f59e0b" stroke-width="1.6"/>
          <line x1="0" y1="6" x2="18" y2="6" stroke="#f59e0b" stroke-width="1.2"/>
          <line x1="0" y1="12" x2="18" y2="12" stroke="#f59e0b" stroke-width="1.2"/>
        </g>
          
          
            <text x="716" y="86" font-family="ui-monospace, monospace" font-size="9" font-weight="700" fill="#f59e0b" letter-spacing="0.04em">&lt;&lt;subsystem&gt;&gt;</text>
            <text x="716" y="101" font-family="-apple-system, BlinkMacSystemFont, sans-serif" font-size="12" font-weight="800" fill="#f59e0b">Inventory Subsystem</text>
          
        

        <!-- Component Tag Badge on Top Right of Card -->
        
          <rect x="828" y="78" width="74" height="18" rx="9" fill="#f59e0b" opacity="0.18" />
          <text x="865" y="90.5" text-anchor="middle" font-family="-apple-system, BlinkMacSystemFont, sans-serif" font-size="9" font-weight="800" fill="#f59e0b">Subsystem A</text>
        

        <!-- UML Methods & Attributes Section -->
        
          <text x="795" y="130" text-anchor="middle" font-family="ui-monospace, SFMono-Regular, Menlo, Monaco, Consolas, monospace" font-size="10.5" class="text-muted">Lock SKU inventory</text>
        
      </g>
    
      <g id="node-3" class="node-card">
        <!-- Main UML Class Card Container with Rounded Corners -->
        <rect x="680" y="180" width="230" height="90" rx="10" class="card-bg" stroke="#ef4444" stroke-width="1.8" />
        
        <!-- Header Compartment -->
        <path d="M 681 181 L 909 181 A 9 9 0 0 1 910 190 L 910 220 L 680 220 L 680 190 A 9 9 0 0 1 681 181 Z" fill="#ef4444" opacity="0.12" />
        <line x1="680" y1="220" x2="910" y2="220" stroke="#ef4444" stroke-width="1.2" opacity="0.3" />
        
        
          <!-- UML Stereotype and Class Title with Component Icon -->
          
        <g transform="translate(692, 191)">
          <rect x="0" y="0" width="18" height="18" rx="2" fill="none" stroke="#ef4444" stroke-width="1.6"/>
          <line x1="0" y1="6" x2="18" y2="6" stroke="#ef4444" stroke-width="1.2"/>
          <line x1="0" y1="12" x2="18" y2="12" stroke="#ef4444" stroke-width="1.2"/>
        </g>
          
          
            <text x="716" y="196" font-family="ui-monospace, monospace" font-size="9" font-weight="700" fill="#ef4444" letter-spacing="0.04em">&lt;&lt;subsystem&gt;&gt;</text>
            <text x="716" y="211" font-family="-apple-system, BlinkMacSystemFont, sans-serif" font-size="12" font-weight="800" fill="#ef4444">Payment Gateway</text>
          
        

        <!-- Component Tag Badge on Top Right of Card -->
        
          <rect x="828" y="188" width="74" height="18" rx="9" fill="#ef4444" opacity="0.18" />
          <text x="865" y="200.5" text-anchor="middle" font-family="-apple-system, BlinkMacSystemFont, sans-serif" font-size="9" font-weight="800" fill="#ef4444">Subsystem B</text>
        

        <!-- UML Methods & Attributes Section -->
        
          <text x="795" y="240" text-anchor="middle" font-family="ui-monospace, SFMono-Regular, Menlo, Monaco, Consolas, monospace" font-size="10.5" class="text-muted">Stripe 3D-Secure auth</text>
        
      </g>
    
      <g id="node-4" class="node-card">
        <!-- Main UML Class Card Container with Rounded Corners -->
        <rect x="680" y="290" width="230" height="90" rx="10" class="card-bg" stroke="#a855f7" stroke-width="1.8" />
        
        <!-- Header Compartment -->
        <path d="M 681 291 L 909 291 A 9 9 0 0 1 910 300 L 910 330 L 680 330 L 680 300 A 9 9 0 0 1 681 291 Z" fill="#a855f7" opacity="0.12" />
        <line x1="680" y1="330" x2="910" y2="330" stroke="#a855f7" stroke-width="1.2" opacity="0.3" />
        
        
          <!-- UML Stereotype and Class Title with Component Icon -->
          
        <g transform="translate(692, 301)">
          <rect x="0" y="0" width="18" height="18" rx="2" fill="none" stroke="#a855f7" stroke-width="1.6"/>
          <line x1="0" y1="6" x2="18" y2="6" stroke="#a855f7" stroke-width="1.2"/>
          <line x1="0" y1="12" x2="18" y2="12" stroke="#a855f7" stroke-width="1.2"/>
        </g>
          
          
            <text x="716" y="306" font-family="ui-monospace, monospace" font-size="9" font-weight="700" fill="#a855f7" letter-spacing="0.04em">&lt;&lt;subsystem&gt;&gt;</text>
            <text x="716" y="321" font-family="-apple-system, BlinkMacSystemFont, sans-serif" font-size="12" font-weight="800" fill="#a855f7">FedEx API Shipper</text>
          
        

        <!-- Component Tag Badge on Top Right of Card -->
        
          <rect x="828" y="298" width="74" height="18" rx="9" fill="#a855f7" opacity="0.18" />
          <text x="865" y="310.5" text-anchor="middle" font-family="-apple-system, BlinkMacSystemFont, sans-serif" font-size="9" font-weight="800" fill="#a855f7">Subsystem C</text>
        

        <!-- UML Methods & Attributes Section -->
        
          <text x="795" y="350" text-anchor="middle" font-family="ui-monospace, SFMono-Regular, Menlo, Monaco, Consolas, monospace" font-size="10.5" class="text-muted">Generate waybill PDF</text>
        
      </g>
    
</svg>