<svg xmlns="http://www.w3.org/2000/svg" viewBox="0 0 1100 340" width="100%" height="100%">
  <defs>
    <pattern id="erGrid" width="20" height="20" patternUnits="userSpaceOnUse">
      <circle cx="2" cy="2" r="1.1" fill="#cbd5e1" />
    </pattern>
  </defs>
  <rect width="1100" height="340" fill="#ffffff" />
  <rect width="1100" height="340" fill="url(#erGrid)" />
  <text x="40" y="42" font-family="Arial, sans-serif" font-size="18" font-weight="800" fill="#0f172a">
    13.12 Stock Trading System — Entity-Relationship (ER) &amp; Storage Schema Diagram
  </text>
  <text x="40" y="64" font-family="Arial, sans-serif" font-size="12" fill="#475569">
    PK = Primary / Partition Key   •   FK = Foreign / Reference Key   •   IDX = Secondary / Clustering Index
  </text>
  
        <line x1="330" y1="180" x2="405" y2="180" stroke="#0f172a" stroke-width="2.2" />
        <!-- '1' tick on left -->
        <line x1="340" y1="172" x2="340" y2="188" stroke="#0f172a" stroke-width="2.2" />
        <!-- Crow's foot '<' on right -->
        <line x1="391" y1="180" x2="405" y2="171" stroke="#0f172a" stroke-width="2.2" />
        <line x1="391" y1="180" x2="405" y2="189" stroke="#0f172a" stroke-width="2.2" />
        <rect x="331.5" y="152" width="72" height="20" rx="4" fill="#0f172a" />
        <text x="367.5" y="166" text-anchor="middle" font-family="Arial, sans-serif" font-size="10" font-weight="700" fill="#ffffff">1 : 1 (populates book node)</text>
      
        <line x1="695" y1="180" x2="770" y2="180" stroke="#0f172a" stroke-width="2.2" />
        <!-- '1' tick on left -->
        <line x1="705" y1="172" x2="705" y2="188" stroke="#0f172a" stroke-width="2.2" />
        <!-- Crow's foot '<' on right -->
        <line x1="756" y1="180" x2="770" y2="171" stroke="#0f172a" stroke-width="2.2" />
        <line x1="756" y1="180" x2="770" y2="189" stroke="#0f172a" stroke-width="2.2" />
        <rect x="696.5" y="152" width="72" height="20" rx="4" fill="#0f172a" />
        <text x="732.5" y="166" text-anchor="middle" font-family="Arial, sans-serif" font-size="10" font-weight="700" fill="#ffffff">1 : N (generates fills)</text>
      
  
      <g>
        <rect x="40" y="85" width="290" height="214" rx="8" fill="#ffffff" stroke="#0f172a" stroke-width="2.2" />
        <path d="M 40 93 Q 40 85 48 85 L 322 85 Q 330 85 330 93 L 330 139 L 40 139 Z" fill="#fef3c7" stroke="#0f172a" stroke-width="2.2" />
        <text x="185" y="109" text-anchor="middle" font-family="monospace" font-size="15" font-weight="800" fill="#0f172a">orders_sequenced_log</text>
        <text x="185" y="128" text-anchor="middle" font-family="Arial, sans-serif" font-size="11" fill="#334155">Aeron / Raft Replicated Command Log</text>
        
        <line x1="40" y1="139" x2="330" y2="139" stroke="#e2e8f0" stroke-width="1" />
        <rect x="50" y="145" width="30" height="18" rx="4" fill="#f59e0b" />
               <text x="65" y="158" text-anchor="middle" font-family="monospace" font-size="10" font-weight="800" fill="#0f172a">PK</text>
        <text x="88" y="159" font-family="monospace" font-size="12" font-weight="700" fill="#0f172a">sequence_no</text>
        <text x="318" y="159" text-anchor="end" font-family="monospace" font-size="11" fill="#475569">BIGINT (Monotonic)</text>
      
        <line x1="40" y1="169" x2="330" y2="169" stroke="#e2e8f0" stroke-width="1" />
        <rect x="50" y="175" width="30" height="18" rx="4" fill="#a855f7" />
               <text x="65" y="188" text-anchor="middle" font-family="monospace" font-size="10" font-weight="800" fill="#0f172a">IDX</text>
        <text x="88" y="189" font-family="monospace" font-size="12" font-weight="700" fill="#0f172a">order_id</text>
        <text x="318" y="189" text-anchor="end" font-family="monospace" font-size="11" fill="#475569">BIGINT</text>
      
        <line x1="40" y1="199" x2="330" y2="199" stroke="#e2e8f0" stroke-width="1" />
        <rect x="50" y="205" width="30" height="18" rx="4" fill="#a855f7" />
               <text x="65" y="218" text-anchor="middle" font-family="monospace" font-size="10" font-weight="800" fill="#0f172a">IDX</text>
        <text x="88" y="219" font-family="monospace" font-size="12" font-weight="700" fill="#0f172a">symbol</text>
        <text x="318" y="219" text-anchor="end" font-family="monospace" font-size="11" fill="#475569">VARCHAR(12)</text>
      
        <line x1="40" y1="229" x2="330" y2="229" stroke="#e2e8f0" stroke-width="1" />
        
        <text x="88" y="249" font-family="monospace" font-size="12" font-weight="700" fill="#0f172a">side_and_type</text>
        <text x="318" y="249" text-anchor="end" font-family="monospace" font-size="11" fill="#475569">ENUM(&apos;BUY_LIMIT&apos;,&apos;SELL_LIMIT&apos;)</text>
      
        <line x1="40" y1="259" x2="330" y2="259" stroke="#e2e8f0" stroke-width="1" />
        
        <text x="88" y="279" font-family="monospace" font-size="12" font-weight="700" fill="#0f172a">price_ticks</text>
        <text x="318" y="279" text-anchor="end" font-family="monospace" font-size="11" fill="#475569">BIGINT (Cents/Ticks)</text>
      
      </g>
    
      <g>
        <rect x="405" y="85" width="290" height="214" rx="8" fill="#ffffff" stroke="#0f172a" stroke-width="2.2" />
        <path d="M 405 93 Q 405 85 413 85 L 687 85 Q 695 85 695 93 L 695 139 L 405 139 Z" fill="#fce7f3" stroke="#0f172a" stroke-width="2.2" />
        <text x="550" y="109" text-anchor="middle" font-family="monospace" font-size="15" font-weight="800" fill="#0f172a">in_memory_order_book</text>
        <text x="550" y="128" text-anchor="middle" font-family="Arial, sans-serif" font-size="11" fill="#334155">LMAX Single-Threaded RAM State</text>
        
        <line x1="405" y1="139" x2="695" y2="139" stroke="#e2e8f0" stroke-width="1" />
        <rect x="415" y="145" width="30" height="18" rx="4" fill="#f59e0b" />
               <text x="430" y="158" text-anchor="middle" font-family="monospace" font-size="10" font-weight="800" fill="#0f172a">PK</text>
        <text x="453" y="159" font-family="monospace" font-size="12" font-weight="700" fill="#0f172a">order_id</text>
        <text x="683" y="159" text-anchor="end" font-family="monospace" font-size="11" fill="#475569">BIGINT (HashMap O(1))</text>
      
        <line x1="405" y1="169" x2="695" y2="169" stroke="#e2e8f0" stroke-width="1" />
        <rect x="415" y="175" width="30" height="18" rx="4" fill="#a855f7" />
               <text x="430" y="188" text-anchor="middle" font-family="monospace" font-size="10" font-weight="800" fill="#0f172a">IDX</text>
        <text x="453" y="189" font-family="monospace" font-size="12" font-weight="700" fill="#0f172a">price_ticks</text>
        <text x="683" y="189" text-anchor="end" font-family="monospace" font-size="11" fill="#475569">BIGINT (TreeMap Level)</text>
      
        <line x1="405" y1="199" x2="695" y2="199" stroke="#e2e8f0" stroke-width="1" />
        
        <text x="453" y="219" font-family="monospace" font-size="12" font-weight="700" fill="#0f172a">remaining_qty</text>
        <text x="683" y="219" text-anchor="end" font-family="monospace" font-size="11" fill="#475569">INT</text>
      
        <line x1="405" y1="229" x2="695" y2="229" stroke="#e2e8f0" stroke-width="1" />
        
        <text x="453" y="249" font-family="monospace" font-size="12" font-weight="700" fill="#0f172a">fifo_prev_ptr</text>
        <text x="683" y="249" text-anchor="end" font-family="monospace" font-size="11" fill="#475569">ORDER_NODE_PTR</text>
      
        <line x1="405" y1="259" x2="695" y2="259" stroke="#e2e8f0" stroke-width="1" />
        
        <text x="453" y="279" font-family="monospace" font-size="12" font-weight="700" fill="#0f172a">fifo_next_ptr</text>
        <text x="683" y="279" text-anchor="end" font-family="monospace" font-size="11" fill="#475569">ORDER_NODE_PTR</text>
      
      </g>
    
      <g>
        <rect x="770" y="85" width="290" height="214" rx="8" fill="#ffffff" stroke="#0f172a" stroke-width="2.2" />
        <path d="M 770 93 Q 770 85 778 85 L 1052 85 Q 1060 85 1060 93 L 1060 139 L 770 139 Z" fill="#dcfce7" stroke="#0f172a" stroke-width="2.2" />
        <text x="915" y="109" text-anchor="middle" font-family="monospace" font-size="15" font-weight="800" fill="#0f172a">trade_executions</text>
        <text x="915" y="128" text-anchor="middle" font-family="Arial, sans-serif" font-size="11" fill="#334155">TimescaleDB / Clearing Ledger</text>
        
        <line x1="770" y1="139" x2="1060" y2="139" stroke="#e2e8f0" stroke-width="1" />
        <rect x="780" y="145" width="30" height="18" rx="4" fill="#f59e0b" />
               <text x="795" y="158" text-anchor="middle" font-family="monospace" font-size="10" font-weight="800" fill="#0f172a">PK</text>
        <text x="818" y="159" font-family="monospace" font-size="12" font-weight="700" fill="#0f172a">execution_id</text>
        <text x="1048" y="159" text-anchor="end" font-family="monospace" font-size="11" fill="#475569">BIGINT</text>
      
        <line x1="770" y1="169" x2="1060" y2="169" stroke="#e2e8f0" stroke-width="1" />
        <rect x="780" y="175" width="30" height="18" rx="4" fill="#38bdf8" />
               <text x="795" y="188" text-anchor="middle" font-family="monospace" font-size="10" font-weight="800" fill="#0f172a">FK</text>
        <text x="818" y="189" font-family="monospace" font-size="12" font-weight="700" fill="#0f172a">buy_order_id</text>
        <text x="1048" y="189" text-anchor="end" font-family="monospace" font-size="11" fill="#475569">BIGINT</text>
      
        <line x1="770" y1="199" x2="1060" y2="199" stroke="#e2e8f0" stroke-width="1" />
        <rect x="780" y="205" width="30" height="18" rx="4" fill="#38bdf8" />
               <text x="795" y="218" text-anchor="middle" font-family="monospace" font-size="10" font-weight="800" fill="#0f172a">FK</text>
        <text x="818" y="219" font-family="monospace" font-size="12" font-weight="700" fill="#0f172a">sell_order_id</text>
        <text x="1048" y="219" text-anchor="end" font-family="monospace" font-size="11" fill="#475569">BIGINT</text>
      
        <line x1="770" y1="229" x2="1060" y2="229" stroke="#e2e8f0" stroke-width="1" />
        
        <text x="818" y="249" font-family="monospace" font-size="12" font-weight="700" fill="#0f172a">exec_price_ticks</text>
        <text x="1048" y="249" text-anchor="end" font-family="monospace" font-size="11" fill="#475569">BIGINT</text>
      
        <line x1="770" y1="259" x2="1060" y2="259" stroke="#e2e8f0" stroke-width="1" />
        
        <text x="818" y="279" font-family="monospace" font-size="12" font-weight="700" fill="#0f172a">matched_qty</text>
        <text x="1048" y="279" text-anchor="end" font-family="monospace" font-size="11" fill="#475569">INT</text>
      
      </g>
    
</svg>